<svg id="Layer_1" data-name="Layer 1" xmlns="http://www.w3.org/2000/svg" viewBox="0 0 285 285">
  <title>breath-icon-inhale-nose</title>
  <g id="Face_inhale" data-name="Face inhale">
    <path class="icon__inhale"
      d="M102.3,13.39s12,24.86,8.08,51.69c7.42,17.19,18.75,29.81,42.86,55.64,7.32,11.27-15.64,19-20,22.25,1.73,5.16,3.38,13.41,9,17.72-1.29,7.75-6.38,11.12-10.26,15,4.31,6,6,9.48,6.46,13.35-3.66,2.91-15.07,13.35-15.07,13.35s18.51,59-40,40.46C64.2,238.32,58,261.35,55.8,270" />
    <line class="icon__inhale" x1="36" y1="233.23" x2="80.75" y2="242.38" />
    <line class="icon__inhale" x1="116.07" y1="181.42" x2="132" y2="175.68" />
  </g>
  <g id="Arrow_inhale_nose" data-name="Arrow inhale nose">
    <path class="icon__inhale" d="M240.58,183.4S197,192.91,159,157.9" />
    <path class="icon__inhale" d="M194.05,134.31l-18.76,5.19c47.34,20.65,85.41-2.59,85.41-2.59" />
    <line class="icon__inhale" x1="190.93" y1="156.47" x2="175.29" y2="139.5" />
    <polyline class="icon__inhale" points="177.37 160.11 159.03 157.9 166.67 178.46" />
  </g>
</svg>