<svg xmlns="http://www.w3.org/2000/svg" viewBox="0 0 563.95 87"><defs><style>.cls-1{fill:#4ea2e2;}.cls-2{fill:#c0d3dd;}</style></defs><title>logo</title><g id="Layer_2" data-name="Layer 2"><g id="Layer_1-2" data-name="Layer 1"><path class="cls-1" d="M142.94,24.11v42h-7.26v-42Zm24.12,0-17.7,19.68L168,66.11h-8.7L140.78,44l17.76-19.86Z"/><path class="cls-1" d="M177.47,64.91a12.38,12.38,0,0,1-4.95-5,15.74,15.74,0,0,1-1.74-7.56,15.65,15.65,0,0,1,1.77-7.62,12.33,12.33,0,0,1,5-5,15.65,15.65,0,0,1,7.62-1.77,15.26,15.26,0,0,1,7.44,1.68,11.43,11.43,0,0,1,4.71,4.83A16.17,16.17,0,0,1,199,52q0,.48,0,1a4.64,4.64,0,0,1-.09.78H174.62V49.37h18.72l-2,2.76a7.86,7.86,0,0,0,.39-1,3.45,3.45,0,0,0,.21-1,8,8,0,0,0-.87-3.84,6.34,6.34,0,0,0-2.4-2.52,6.91,6.91,0,0,0-3.57-.9,7.81,7.81,0,0,0-4.2,1.08A6.78,6.78,0,0,0,178.28,47a13.15,13.15,0,0,0-1,5,12.71,12.71,0,0,0,.9,5.07,6.7,6.7,0,0,0,2.67,3.15,8.09,8.09,0,0,0,4.29,1.08,9.5,9.5,0,0,0,4.62-1.08,8.7,8.7,0,0,0,3.3-3.3l5.58,2.28a14.38,14.38,0,0,1-5.58,5.58,17,17,0,0,1-8.22,1.86A14.89,14.89,0,0,1,177.47,64.91Z"/><path class="cls-1" d="M212.15,64.91a12.38,12.38,0,0,1-5-5,15.74,15.74,0,0,1-1.74-7.56,15.65,15.65,0,0,1,1.77-7.62,12.33,12.33,0,0,1,5-5,15.65,15.65,0,0,1,7.62-1.77,15.26,15.26,0,0,1,7.44,1.68A11.43,11.43,0,0,1,232,44.42,16.17,16.17,0,0,1,233.66,52q0,.48,0,1a4.64,4.64,0,0,1-.09.78H209.3V49.37H228l-2,2.76a7.86,7.86,0,0,0,.39-1,3.45,3.45,0,0,0,.21-1,8,8,0,0,0-.87-3.84,6.34,6.34,0,0,0-2.4-2.52,6.91,6.91,0,0,0-3.57-.9,7.81,7.81,0,0,0-4.2,1.08A6.78,6.78,0,0,0,213,47a13.15,13.15,0,0,0-1,5,12.71,12.71,0,0,0,.9,5.07,6.7,6.7,0,0,0,2.67,3.15,8.09,8.09,0,0,0,4.29,1.08,9.5,9.5,0,0,0,4.62-1.08,8.7,8.7,0,0,0,3.3-3.3l5.58,2.28a14.38,14.38,0,0,1-5.58,5.58,17,17,0,0,1-8.22,1.86A14.89,14.89,0,0,1,212.15,64.91Z"/><path class="cls-1" d="M242,79.31V38.51h6.54v40.8Zm27.54-19.17a12.8,12.8,0,0,1-4.92,5A13.43,13.43,0,0,1,258,66.83a10.69,10.69,0,0,1-6.15-1.77,11.31,11.31,0,0,1-4-5,19.37,19.37,0,0,1-1.41-7.71,19.31,19.31,0,0,1,1.41-7.74,11.34,11.34,0,0,1,4-5A10.69,10.69,0,0,1,258,37.79a13.43,13.43,0,0,1,6.66,1.71,12.86,12.86,0,0,1,4.92,5,15.55,15.55,0,0,1,1.86,7.86A15.59,15.59,0,0,1,269.54,60.14Zm-6-12.54a7.51,7.51,0,0,0-3-2.94,8.85,8.85,0,0,0-4.17-1,7.52,7.52,0,0,0-3.66,1,8,8,0,0,0-3,2.91,9,9,0,0,0-1.17,4.74,9,9,0,0,0,1.17,4.74,8,8,0,0,0,3,2.91,7.52,7.52,0,0,0,3.66,1,8.85,8.85,0,0,0,4.17-1,7.51,7.51,0,0,0,3-2.94,9.18,9.18,0,0,0,1.14-4.71A9.18,9.18,0,0,0,263.54,47.6Z"/><path class="cls-1" d="M306.32,41h6.78a8.57,8.57,0,0,0,3.48-.66,5.38,5.38,0,0,0,2.34-1.89,5.14,5.14,0,0,0,.84-3,4.86,4.86,0,0,0-1.86-4.08,7.62,7.62,0,0,0-4.8-1.44H308V60.29h5.88a10.93,10.93,0,0,0,4.26-.78,6.58,6.58,0,0,0,2.94-2.34,7.47,7.47,0,0,0,.45-6.87,6.12,6.12,0,0,0-1.74-2.16,7,7,0,0,0-2.61-1.26,13.1,13.1,0,0,0-3.3-.39h-7.56v-3.9h8a24.2,24.2,0,0,1,5.76.66,15.63,15.63,0,0,1,4.83,2,9.9,9.9,0,0,1,3.33,3.54,10.47,10.47,0,0,1,1.2,5.16,10.77,10.77,0,0,1-7.29,10.83,21.93,21.93,0,0,1-7.83,1.29H300.92v-42h12.66a19.78,19.78,0,0,1,7,1.14,10.1,10.1,0,0,1,4.74,3.48A9.81,9.81,0,0,1,327,34.67,8.37,8.37,0,0,1,325.31,40a10.56,10.56,0,0,1-4.74,3.33,19.78,19.78,0,0,1-7,1.14h-7.26Z"/><path class="cls-1" d="M345.2,66.11h-6.42V38.51h6.42Zm6.54-21.78a4.74,4.74,0,0,0-2-.36,4,4,0,0,0-2.64.84,4.67,4.67,0,0,0-1.47,2.31,11.83,11.83,0,0,0-.45,3.45L343,49.31a13.31,13.31,0,0,1,1.23-5.85,11.05,11.05,0,0,1,3.18-4.05,6.56,6.56,0,0,1,4.05-1.5,8.68,8.68,0,0,1,2.82.45A4.73,4.73,0,0,1,356.54,40l-3.12,5.46A8.37,8.37,0,0,0,351.74,44.33Z"/><path class="cls-1" d="M367.07,64.91a12.38,12.38,0,0,1-4.95-5,15.74,15.74,0,0,1-1.74-7.56,15.65,15.65,0,0,1,1.77-7.62,12.33,12.33,0,0,1,5-5,15.65,15.65,0,0,1,7.62-1.77,15.26,15.26,0,0,1,7.44,1.68,11.43,11.43,0,0,1,4.71,4.83A16.17,16.17,0,0,1,388.58,52q0,.48,0,1a4.64,4.64,0,0,1-.09.78H364.22V49.37h18.72l-2,2.76a7.86,7.86,0,0,0,.39-1,3.45,3.45,0,0,0,.21-1,8,8,0,0,0-.87-3.84,6.34,6.34,0,0,0-2.4-2.52,6.91,6.91,0,0,0-3.57-.9,7.81,7.81,0,0,0-4.2,1.08A6.78,6.78,0,0,0,367.88,47a13.15,13.15,0,0,0-1,5,12.71,12.71,0,0,0,.9,5.07,6.7,6.7,0,0,0,2.67,3.15,8.09,8.09,0,0,0,4.29,1.08,9.5,9.5,0,0,0,4.62-1.08,8.7,8.7,0,0,0,3.3-3.3l5.58,2.28a14.38,14.38,0,0,1-5.58,5.58,17,17,0,0,1-8.22,1.86A14.89,14.89,0,0,1,367.07,64.91Z"/><path class="cls-1" d="M401.9,59.9a3.93,3.93,0,0,0,1.83,1.47,7,7,0,0,0,2.67.48,7.86,7.86,0,0,0,3.51-.78,6.37,6.37,0,0,0,3.57-5.88l1,3.6a6.5,6.5,0,0,1-1.53,4.41,9.32,9.32,0,0,1-3.84,2.64,13.26,13.26,0,0,1-4.71.87,11.36,11.36,0,0,1-4.8-1,8.36,8.36,0,0,1-3.54-3,8.46,8.46,0,0,1-1.32-4.8,7.92,7.92,0,0,1,2.82-6.39q2.82-2.37,8-2.37a16.78,16.78,0,0,1,4.77.6,14.12,14.12,0,0,1,3.33,1.41,7.56,7.56,0,0,1,1.86,1.47v3.3a13,13,0,0,0-4-1.92,16.09,16.09,0,0,0-4.44-.6,8.93,8.93,0,0,0-3.3.51,4.11,4.11,0,0,0-1.89,1.41,3.78,3.78,0,0,0-.63,2.22A4.17,4.17,0,0,0,401.9,59.9Zm-5.34-18.75a27.1,27.1,0,0,1,4.83-2.22,19.86,19.86,0,0,1,6.81-1.08,16.49,16.49,0,0,1,6,1,9.54,9.54,0,0,1,4.11,2.91,7.25,7.25,0,0,1,1.5,4.65V66.11h-6.36V47.69a4.56,4.56,0,0,0-.45-2.16,3.89,3.89,0,0,0-1.23-1.38,5.22,5.22,0,0,0-1.86-.78,10.78,10.78,0,0,0-2.34-.24,14.21,14.21,0,0,0-3.63.45A14.65,14.65,0,0,0,401,44.66a16.55,16.55,0,0,0-1.83,1.05Z"/><path class="cls-1" d="M441.62,38.51v5.7H426v-5.7ZM437,28.91v37.2h-6.42V28.91Z"/><path class="cls-1" d="M454.94,66.11h-6.48V19.31h6.48ZM465,44.69a4.7,4.7,0,0,0-3.93-1.56,6.32,6.32,0,0,0-3.18.78,5.54,5.54,0,0,0-2.16,2.16,6.48,6.48,0,0,0-.78,3.24h-1.56a13.64,13.64,0,0,1,1.2-5.88A10.23,10.23,0,0,1,458,39.29a8.89,8.89,0,0,1,5.31-1.56,10.45,10.45,0,0,1,5.19,1.2,7.62,7.62,0,0,1,3.21,3.57,14.25,14.25,0,0,1,1.08,5.91v17.7h-6.54V49.31A7.42,7.42,0,0,0,465,44.69Z"/><path class="cls-1" d="M484.37,24.71a4,4,0,0,1,2.85-1.14,4,4,0,0,1,2.91,1.14,4,4,0,0,1,0,5.61,4,4,0,0,1-2.91,1.17,4,4,0,0,1-2.85-1.17,3.81,3.81,0,0,1,0-5.61Zm6,13.8v27.6H484V38.51Z"/><path class="cls-1" d="M518.23,44.69a4.72,4.72,0,0,0-3.9-1.56,6.55,6.55,0,0,0-3.18.75A5.26,5.26,0,0,0,509,46a6.54,6.54,0,0,0-.79,3.27v16.8h-6.48V38.51h6.48v4.26a9,9,0,0,1,3.39-3.66,9.71,9.71,0,0,1,4.95-1.2q4.68,0,7.14,2.85t2.46,7.83V66.11H519.5V49.31A7.17,7.17,0,0,0,518.23,44.69Z"/><path class="cls-1" d="M536.59,44.42a12.75,12.75,0,0,1,4.95-4.83,13.67,13.67,0,0,1,6.63-1.68,10.86,10.86,0,0,1,6.09,1.71,11.78,11.78,0,0,1,4.14,4.89,17.59,17.59,0,0,1,1.53,7.68,17.44,17.44,0,0,1-1.53,7.62,11.78,11.78,0,0,1-4.14,4.89,10.86,10.86,0,0,1-6.09,1.71,13.67,13.67,0,0,1-6.63-1.68,12.69,12.69,0,0,1-4.95-4.86,15,15,0,0,1-1.86-7.68A15.05,15.05,0,0,1,536.59,44.42ZM541.69,68a6.35,6.35,0,0,0,1,3.36,6.66,6.66,0,0,0,2.73,2.34,9.14,9.14,0,0,0,4,.84,8.39,8.39,0,0,0,3.9-1,7.5,7.5,0,0,0,3-2.94,9.92,9.92,0,0,0,1.17-5.1v-27H564v27a15.36,15.36,0,0,1-2,8.22,12.68,12.68,0,0,1-5.25,4.83,15.72,15.72,0,0,1-7,1.59A17.59,17.59,0,0,1,542,78.62a11.4,11.4,0,0,1-4.89-4.29A12.65,12.65,0,0,1,535.27,68Zm.9-11.1a7.56,7.56,0,0,0,3,2.91,8.72,8.72,0,0,0,4.11,1,7.87,7.87,0,0,0,3.69-1,7.61,7.61,0,0,0,3-2.91,9,9,0,0,0,1.17-4.71,9.37,9.37,0,0,0-.69-3.75,8.36,8.36,0,0,0-1.83-2.7,7.45,7.45,0,0,0-2.55-1.65,7.76,7.76,0,0,0-2.79-.54,8.72,8.72,0,0,0-4.11,1,7.56,7.56,0,0,0-3,2.91,9.14,9.14,0,0,0-1.14,4.74A9,9,0,0,0,542.59,56.87Z"/><circle class="cls-2" cx="43.5" cy="43.5" r="43.5"/></g></g></svg>