<svg xmlns="http://www.w3.org/2000/svg" xmlns:xlink="http://www.w3.org/1999/xlink" viewBox="0 0 325.28 58.29"><defs><style>.cls-1{fill:url(#linear-gradient);}.cls-2{fill:url(#linear-gradient-2);}.cls-3{fill:url(#linear-gradient-3);}.cls-4{fill:url(#linear-gradient-4);}.cls-5{fill:url(#linear-gradient-5);}.cls-6{fill:url(#linear-gradient-6);}.cls-7{fill:url(#linear-gradient-7);}</style><linearGradient id="linear-gradient" x1="69.33" y1="41.54" x2="112.49" y2="41.54" gradientUnits="userSpaceOnUse"><stop offset="0" stop-color="#e36966"/><stop offset="0.52" stop-color="#e36966" stop-opacity="0.96"/><stop offset="1" stop-color="#e36966" stop-opacity="0.9"/></linearGradient><linearGradient id="linear-gradient-2" x1="118.49" y1="41.54" x2="156.67" y2="41.54" xlink:href="#linear-gradient"/><linearGradient id="linear-gradient-3" x1="162.67" y1="41.54" x2="198.19" y2="41.54" xlink:href="#linear-gradient"/><linearGradient id="linear-gradient-4" x1="204.19" y1="41.54" x2="238.39" y2="41.54" xlink:href="#linear-gradient"/><linearGradient id="linear-gradient-5" x1="244.39" y1="41.54" x2="277.92" y2="41.54" xlink:href="#linear-gradient"/><linearGradient id="linear-gradient-6" x1="0" y1="39.58" x2="68.58" y2="39.58" xlink:href="#linear-gradient"/><linearGradient id="linear-gradient-7" x1="281.79" y1="29.14" x2="325.28" y2="29.14" xlink:href="#linear-gradient"/></defs><title>logo</title><g id="Layer_2" data-name="Layer 2"><g id="Layer_1-2" data-name="Layer 1"><path class="cls-1" d="M94.42,25.23q7.89,0,13,3.85a11.79,11.79,0,0,1,5.09,9.8,17.07,17.07,0,0,1-2.67,8.9,20.82,20.82,0,0,1-6.91,7,19.06,19.06,0,0,1-5.85,2.37,42.67,42.67,0,0,1-8.46.65q-8.88,0-12-1.64-7.29-3.85-7.29-11.39,0-7.95,7.46-13.77A27.81,27.81,0,0,1,94.42,25.23Zm-.89,8.92a14.11,14.11,0,0,0-8.81,3.06q-4,3-4,6.74,0,4.84,8.5,4.85c3.3,0,5.85-.65,7.64-2,3-2.14,4.44-4.6,4.44-7.36a4.48,4.48,0,0,0-2.16-3.86A9.85,9.85,0,0,0,93.53,34.15Z"/><path class="cls-2" d="M140.69,25.23a17.08,17.08,0,0,1,11.48,3.85,12.34,12.34,0,0,1,4.5,9.8,18.77,18.77,0,0,1-2.36,8.9,19.93,19.93,0,0,1-6.11,7A16,16,0,0,1,143,57.2a33.58,33.58,0,0,1-7.49.65q-7.84,0-10.59-1.64a12.46,12.46,0,0,1-6.45-11.39q0-7.95,6.6-13.77A22.78,22.78,0,0,1,140.69,25.23Zm-.79,8.92a11.63,11.63,0,0,0-7.8,3.06q-3.53,3-3.52,6.74,0,4.84,7.51,4.85c2.92,0,5.18-.65,6.76-2,2.62-2.14,3.93-4.6,3.93-7.36a4.65,4.65,0,0,0-1.91-3.86A8,8,0,0,0,139.9,34.15Z"/><path class="cls-3" d="M183.32,25.23A15.19,15.19,0,0,1,194,29.08a12.72,12.72,0,0,1,4.19,9.8,19.87,19.87,0,0,1-2.19,8.9,19.54,19.54,0,0,1-5.69,7,14.33,14.33,0,0,1-4.82,2.37,29.06,29.06,0,0,1-7,.65q-7.31,0-9.86-1.64-6-3.85-6-11.39a18.37,18.37,0,0,1,6.14-13.77A20.38,20.38,0,0,1,183.32,25.23Zm-.73,8.92a10.43,10.43,0,0,0-7.26,3.06A9.09,9.09,0,0,0,172.05,44q0,4.84,7,4.85a9.09,9.09,0,0,0,6.29-2A9.59,9.59,0,0,0,189,39.47a4.76,4.76,0,0,0-1.78-3.86A7,7,0,0,0,182.59,34.15Z"/><path class="cls-4" d="M224.07,25.23a14.33,14.33,0,0,1,10.29,3.85,13,13,0,0,1,4,9.8,20.58,20.58,0,0,1-2.11,8.9,19.5,19.5,0,0,1-5.48,7,13.64,13.64,0,0,1-4.64,2.37,27,27,0,0,1-6.7.65q-7,0-9.49-1.64-5.78-3.85-5.78-11.39a18.68,18.68,0,0,1,5.91-13.77A19.25,19.25,0,0,1,224.07,25.23Zm-.8,8.92a9.13,9.13,0,0,0-6.64,3.06,9.42,9.42,0,0,0-3,6.74q0,4.84,6.4,4.85a7.87,7.87,0,0,0,5.75-2,9.94,9.94,0,0,0,3.34-7.36,5,5,0,0,0-1.62-3.86A6.09,6.09,0,0,0,223.27,34.15Z"/><path class="cls-5" d="M263.88,25.23A13.9,13.9,0,0,1,274,29.08a13.13,13.13,0,0,1,3.95,9.8,20.81,20.81,0,0,1-2.07,8.9,19.38,19.38,0,0,1-5.37,7,13.26,13.26,0,0,1-4.55,2.37,25.93,25.93,0,0,1-6.57.65q-6.9,0-9.31-1.64-5.66-3.85-5.66-11.39a18.87,18.87,0,0,1,5.79-13.77A18.69,18.69,0,0,1,263.88,25.23ZM263,34.15a8.43,8.43,0,0,0-6.28,3.06A9.69,9.69,0,0,0,253.91,44q0,4.84,6,4.85a7.19,7.19,0,0,0,5.44-2,10.21,10.21,0,0,0,3.17-7.36A5.12,5.12,0,0,0,267,35.61,5.58,5.58,0,0,0,263,34.15Z"/><path class="cls-6" d="M18,57.59l-.69,0C4.22,57.05.77,34.55,0,27.66A5.5,5.5,0,0,1,11,26.48h0c1,9.28,4.12,17.94,6.31,19.77.14-.42.29-.91.4-1.29.91-3.08,2.8-9.49,10.19-10,6.1-.41,8.81,4.6,10.44,7.59,1.43,2.63,2.13,3.58,3,3.89a39,39,0,0,0,2-5.3c2.27-7.1,6.07-19,19.5-19.58a5.5,5.5,0,1,1,.5,11c-5.22.24-7,4-9.53,11.94C52,50.17,49.51,57.89,41.63,57.57s-11.07-6.23-13-9.74l-.23-.41-.19.65C27.38,51,25.42,57.59,18,57.59Z"/><path class="cls-7" d="M325.19,52.16a5,5,0,0,0-5.82-4,8.47,8.47,0,0,1-2.29.07,11.13,11.13,0,0,1,.84-2.33c3.53-7.57,1.85-12.18-.18-14.73-3.13-3.93-8.68-4.84-13.34-4.8a128.11,128.11,0,0,1,5-14.11,6.16,6.16,0,0,1,1.48-2.2A5,5,0,0,0,312.69.27C309.81-.57,304,.14,300.3,8.05c-3,6.51-6.74,19.49-9.73,29.92-.65,2.25-1.24,4.35-1.78,6.17-.72,2.44-1.58,3.42-1.94,3.67h-.06a5,5,0,0,0-.75,10,6.93,6.93,0,0,0,1.06.08c3.42,0,8.76-2.25,11.28-10.87.55-1.85,1.15-4,1.8-6.24l1.19-4.14c4.05-.47,8,0,8.56.83,0,0,.4,1.1-1.07,4.26-2.49,5.33-2.49,9.66,0,12.85s6.25,3.77,9.06,3.77a17.61,17.61,0,0,0,3.32-.31A5,5,0,0,0,325.19,52.16Z"/></g></g></svg>