<?xml version="1.0" standalone="no"?>
<!DOCTYPE svg PUBLIC "-//W3C//DTD SVG 20010904//EN"
 "http://www.w3.org/TR/2001/REC-SVG-20010904/DTD/svg10.dtd">
<svg version="1.0" xmlns="http://www.w3.org/2000/svg"
 width="1072.000000pt" height="1072.000000pt" viewBox="0 0 1072.000000 1072.000000"
 preserveAspectRatio="xMidYMid meet">
<metadata>
Created by potrace 1.14, written by Peter Selinger 2001-2017
</metadata>
<g transform="translate(0.000000,1072.000000) scale(0.100000,-0.100000)"
fill="#000000" stroke="none">
<path d="M630 8119 c-14 -5 -49 -15 -79 -24 -225 -68 -409 -238 -499 -465 -22
-54 -27 -72 -40 -140 -9 -47 -8 -231 1 -305 5 -33 10 -76 13 -95 2 -19 7 -51
11 -70 3 -19 6 -38 5 -42 -1 -4 2 -29 7 -55 5 -26 12 -68 16 -93 6 -45 11 -74
20 -130 3 -16 7 -45 10 -62 3 -18 12 -69 20 -113 8 -44 16 -93 19 -110 3 -16
7 -39 10 -50 4 -17 22 -111 40 -205 4 -24 43 -202 53 -244 13 -55 24 -103 28
-126 3 -14 7 -35 10 -47 3 -13 6 -25 6 -28 0 -2 5 -19 10 -37 6 -18 12 -43 15
-56 4 -22 54 -209 94 -357 12 -44 25 -84 28 -90 4 -5 7 -17 9 -25 2 -15 20
-81 31 -110 3 -8 6 -19 8 -25 21 -82 191 -554 205 -570 5 -5 9 -15 9 -22 0 -7
11 -36 24 -65 13 -29 37 -84 54 -123 86 -198 229 -462 345 -635 86 -129 110
-164 118 -170 4 -3 23 -26 43 -53 87 -114 227 -259 344 -358 218 -182 426
-292 717 -378 17 -5 62 -14 100 -20 39 -7 84 -15 100 -18 50 -10 339 -12 381
-3 21 4 57 11 79 14 22 3 78 17 125 31 47 14 92 27 100 29 37 9 195 91 256
131 37 25 69 45 71 45 2 0 10 6 18 13 7 6 44 39 82 72 86 75 198 206 275 321
53 80 170 295 168 309 -1 3 6 18 13 33 31 59 121 292 132 342 2 8 10 35 18 60
24 72 136 470 151 540 2 8 9 35 16 60 7 25 14 52 16 60 1 8 20 72 40 143 34
117 45 139 50 103 2 -12 24 -85 78 -256 74 -232 108 -338 116 -355 8 -18 23
-62 25 -75 1 -5 32 -88 72 -190 26 -67 35 -89 97 -223 20 -42 36 -81 36 -86 0
-5 3 -11 8 -13 4 -1 24 -37 46 -78 35 -69 162 -270 199 -316 225 -282 416
-440 677 -563 122 -57 260 -102 380 -125 47 -9 99 -19 115 -22 17 -3 100 -7
185 -9 121 -3 178 1 260 16 120 22 145 27 145 29 0 1 7 3 15 5 34 7 119 39
180 67 36 17 74 34 85 39 50 22 242 156 254 177 6 9 11 13 11 9 0 -11 156 146
195 197 17 21 35 44 40 50 25 26 127 181 172 261 29 51 114 225 142 290 12 28
26 59 31 70 8 18 30 71 35 85 1 3 5 12 8 20 11 27 68 184 83 230 8 25 19 54
24 65 9 21 119 360 125 385 2 8 31 98 65 200 34 102 63 192 65 200 7 30 132
366 145 390 7 14 13 26 12 28 -1 1 5 19 13 40 9 20 23 55 33 77 68 166 231
452 320 565 59 74 220 240 233 240 3 0 26 16 50 35 24 19 49 35 56 35 6 0 13
3 15 8 8 18 208 103 278 118 19 4 37 8 40 9 3 1 25 5 50 9 25 5 54 10 65 12
29 6 101 14 170 19 111 7 183 24 283 66 23 10 46 19 50 21 4 1 16 10 26 20 11
10 24 18 29 18 29 0 157 126 215 211 181 267 184 596 8 871 -39 62 -141 167
-204 210 -55 38 -169 90 -247 114 -65 19 -281 25 -405 11 -36 -4 -83 -9 -105
-12 -35 -4 -207 -35 -275 -49 -14 -3 -36 -8 -50 -11 -14 -3 -36 -9 -50 -14
-14 -5 -38 -13 -55 -17 -39 -10 -44 -11 -50 -14 -3 -1 -8 -3 -12 -4 -29 -7
-159 -52 -163 -56 -3 -3 -25 -12 -50 -20 -25 -7 -52 -20 -61 -27 -8 -7 -21
-13 -27 -13 -28 0 -355 -183 -422 -237 -8 -6 -51 -38 -95 -71 -138 -103 -383
-339 -445 -428 -8 -11 -33 -42 -55 -68 -22 -26 -66 -85 -97 -129 -32 -45 -61
-86 -65 -92 -24 -32 -63 -96 -63 -104 0 -5 -4 -11 -8 -13 -7 -3 -35 -49 -114
-187 -27 -47 -138 -269 -139 -278 -1 -5 -11 -26 -22 -48 -12 -22 -22 -42 -22
-45 -2 -6 -15 -37 -64 -153 -44 -104 -90 -227 -91 -242 0 -3 -6 -18 -14 -34
-12 -22 -207 -589 -206 -598 0 -2 -1 -5 -1 -8 -1 -3 -2 -8 -3 -12 -1 -5 -9
-28 -18 -53 -9 -25 -26 -79 -38 -120 -12 -41 -25 -82 -30 -90 -4 -8 -19 -55
-35 -105 -15 -49 -30 -94 -34 -100 -3 -5 -6 -12 -6 -15 -9 -69 -186 -469 -212
-477 -10 -4 -93 76 -93 89 0 3 -7 13 -15 21 -8 8 -40 66 -72 129 -57 112 -72
144 -93 203 -6 17 -14 39 -19 50 -11 24 -52 136 -55 150 -1 6 -24 78 -51 160
-27 83 -50 152 -50 155 -2 14 -133 428 -144 455 -5 11 -30 79 -56 150 -50 139
-153 361 -200 435 -16 25 -29 48 -30 51 0 3 -19 32 -42 63 -24 31 -43 59 -43
62 0 13 -178 198 -245 254 -135 114 -379 220 -565 246 -74 10 -242 11 -321 2
-80 -9 -256 -49 -304 -69 -16 -7 -35 -13 -41 -14 -14 -4 -191 -91 -234 -116
-107 -63 -278 -215 -379 -337 -48 -58 -143 -196 -168 -246 -9 -17 -19 -33 -22
-36 -6 -5 -94 -179 -96 -190 0 -3 -11 -27 -23 -55 -28 -62 -124 -321 -123
-332 0 -2 -6 -18 -15 -38 -8 -19 -14 -37 -14 -40 0 -3 -7 -31 -17 -63 -9 -31
-18 -60 -19 -64 -1 -5 -2 -9 -4 -10 -1 -2 -3 -10 -5 -18 -3 -14 -18 -71 -62
-230 -8 -30 -17 -63 -19 -72 -2 -10 -6 -26 -8 -35 -2 -10 -11 -43 -20 -74 -9
-31 -19 -65 -21 -75 -2 -11 -11 -44 -20 -74 -16 -54 -21 -74 -29 -107 -14 -55
-88 -266 -110 -316 l-27 -57 -34 25 c-129 99 -318 391 -448 695 -8 19 -25 58
-37 85 -13 28 -31 73 -40 100 -10 28 -24 64 -31 80 -7 17 -13 33 -14 38 -2 4
-4 9 -5 12 -1 3 -3 8 -5 13 -1 4 -4 14 -7 22 -12 30 -70 203 -73 214 -1 6 -4
18 -7 26 -32 95 -130 449 -144 520 -3 14 -7 33 -10 42 -3 10 -7 28 -10 40 -2
13 -13 57 -23 98 -10 41 -17 78 -14 83 2 4 0 7 -4 7 -5 0 -9 8 -10 18 -1 9 -6
40 -11 67 -24 115 -66 328 -76 385 -3 19 -8 49 -11 65 -24 135 -36 205 -40
235 -2 19 -7 46 -10 60 -3 14 -7 43 -10 65 -2 22 -10 76 -15 120 -6 44 -13
103 -16 130 -10 102 -91 335 -116 335 -4 0 -8 5 -8 11 0 13 -68 97 -117 145
-93 91 -254 176 -378 199 -55 11 -274 13 -305 4z"/>
</g>
</svg>
